<?xml version="1.0" encoding="utf-8"?>
<!-- Generator: Adobe Illustrator 23.0.1, SVG Export Plug-In . SVG Version: 6.00 Build 0)  -->
<svg version="1.1" id="Capa_1" xmlns="http://www.w3.org/2000/svg" xmlns:xlink="http://www.w3.org/1999/xlink" x="0px" y="0px"
	 viewBox="0 0 600 600" style="enable-background:new 0 0 600 600;" xml:space="preserve">
<style type="text/css">
	.st0{fill:url(#SVGID_1_);}
	.st1{fill:#043263;}
	.st2{fill:#1464A5;}
	.st3{fill:url(#SVGID_2_);}
	.st4{fill:#2DCCCD;}
	.st5{fill:#004481;}
	.st6{fill:#028484;}
	.st7{fill:url(#SVGID_3_);}
</style>
<title>Mesa de trabajo 1 copia 27</title>
<linearGradient id="SVGID_1_" gradientUnits="userSpaceOnUse" x1="164.8457" y1="467.5797" x2="430.0457" y2="966.3498" gradientTransform="matrix(1 0 0 1 0 -400)">
	<stop  offset="0" style="stop-color:#192647"/>
	<stop  offset="0" style="stop-color:#192647;stop-opacity:0.5"/>
	<stop  offset="1" style="stop-color:#192647;stop-opacity:0"/>
</linearGradient>
<path class="st0" d="M548.3,364.3c-0.4-1.6-0.8-3.2-1.3-4.7c-4.8-16.2-13.6-30.9-25.5-42.9l-0.1-0.1c-1.2-1.2-2.4-2.3-3.6-3.4
	c-0.7-0.6-1.3-1.1-2-1.7s-1.2-1.1-1.8-1.6c-0.9-0.8-1.8-1.5-2.8-2.2c-0.4-0.3-0.7-0.6-1.1-0.9c-1.1-0.8-2.2-1.6-3.4-2.4l-0.6-0.4
	c-1.3-0.8-2.5-1.6-3.8-2.4l-0.2-0.2c-1.4-0.8-2.8-1.6-4.1-2.4l0,0c-2.8-1.5-5.7-2.9-8.6-4.1l0,0c-38-16-82-7.4-111.2,21.8
	c-8.6,8.6-15.5,18.7-20.5,29.7c0.1-0.2,0.1-0.3,0.2-0.5l-37.1,0.2v-73.9l18.6-2.6l2-3.2c3.3-5.2,1.8-12.2-3.4-15.6l0,0l-81.8-52
	c-0.5-0.3-1.1-0.3-1.6,0l-81.8,52c-5.3,3.3-6.8,10.3-3.5,15.6l2.1,3.2l18.6,2.6V347l-42.8,0.3L113,381.5h0.1l-6.9,6.8l36.5,35
	c0,0,10.7,0.6,26.2,0c2.4-0.1,11.1-14.3,11.1-14.3l11.1,14.3h27.7l11.1-14.6l11.1,10l11.1-9.9c-0.1-0.3,11.1,14.6,11.1,14.6h27.7
	c0,0,10.9-14.7,11.1-14.7l11.1,14.7l39.7,0.3c4.9,13.4,14.7,25.8,25.5,36.5c3.6,3.6,7.4,6.8,11.4,9.8l0,0c0.9,0.6,1.8,1.3,2.7,1.9
	c0.4,0.3,0.9,0.6,1.3,0.9c0.8,0.5,1.7,1.1,2.5,1.6c0.5,0.3,1,0.6,1.5,1c0.8,0.5,1.7,1,2.5,1.4l1.6,0.9c0.8,0.4,1.7,0.9,2.5,1.3
	l1.7,0.8c0.8,0.4,1.7,0.8,2.5,1.2l1.8,0.8c0.9,0.4,1.7,0.7,2.6,1l1.8,0.7c0.9,0.3,1.7,0.6,2.6,0.9c0.6,0.2,1.2,0.4,1.8,0.6
	c0.9,0.3,1.8,0.6,2.7,0.8l1.7,0.5c0.9,0.2,1.9,0.5,2.8,0.7l1.2,0.2c2.1,0.5,4.3,0.9,6.4,1.2l1.2,0.2c0.9,0.1,1.8,0.2,2.7,0.3
	c0.6,0.1,1.3,0.2,2,0.2c0.8,0.1,1.7,0.1,2.5,0.2s1.4,0.1,2.1,0.1s1.6,0.1,2.5,0.1h2.2h2.4c0.8,0,1.5,0,2.2-0.1l2.4-0.1l2.3-0.2
	l2.3-0.2c0.8-0.1,1.6-0.2,2.3-0.3l2.3-0.3l2.4-0.4c0.7-0.1,1.5-0.2,2.2-0.4c0.9-0.2,1.7-0.4,2.6-0.6c0.6-0.1,1.3-0.3,2-0.5
	c1.2-0.3,2.3-0.6,3.5-0.9c0.6-0.2,1.2-0.3,1.8-0.5c1.2-0.4,2.5-0.8,3.7-1.2l1.7-0.6c0.9-0.3,1.8-0.7,2.7-1l1.8-0.8
	c0.9-0.4,1.7-0.7,2.5-1.1l1.9-0.9l2.4-1.2c0.6-0.3,1.2-0.6,1.9-1c0.8-0.4,1.6-0.9,2.4-1.3l1.8-1.1c0.8-0.5,1.5-1,2.3-1.5
	c0.6-0.4,1.2-0.8,1.8-1.1c0.8-0.5,1.5-1.1,2.3-1.6c0.6-0.4,1.1-0.8,1.7-1.2c0.8-0.6,1.6-1.2,2.3-1.8c0.5-0.4,1-0.8,1.5-1.2
	c0.8-0.7,1.7-1.4,2.5-2.1c0.4-0.4,0.8-0.7,1.2-1.1c1.2-1.1,2.4-2.2,3.6-3.4l0,0c9.6-9.6,17.2-21,22.3-33.6c1.2-3.1,2.3-6.2,3.3-9.3
	C552.2,400.2,552.6,381.8,548.3,364.3z M354.2,354.4c0.2-0.6,0.5-1.2,0.7-1.8C354.7,353.3,354.4,353.9,354.2,354.4L354.2,354.4z
	 M356.1,349.5l-0.8,1.9C355.6,350.8,355.9,350.2,356.1,349.5L356.1,349.5z M494.1,405.5c-1.6,1.6-3.4,2.9-5.3,4
	c-0.5,0.3-1.1,0.6-1.7,0.9c-1,0.5-2.1,0.9-3.2,1.2c-2.9,0.9-6,1.1-9,0.9c-2.2-0.2-4.3-0.7-6.4-1.5l-0.8-0.3
	c-12.4-5.1-18.3-19.3-13.2-31.7c0.3-0.6,0.6-1.3,0.9-1.9c0.4-0.7,0.8-1.4,1.2-2.1c0.9-1.4,1.9-2.6,3.1-3.8c3.9-4,9.2-6.4,14.7-6.9
	c3.1-0.3,6.2,0,9.2,0.9c1.3,0.4,2.5,0.9,3.7,1.5c0.9,0.5,1.9,1,2.7,1.5c0.7,0.5,1.3,0.9,2,1.5c1.3,1,2.5,2.2,3.5,3.5
	c5.6,6.8,7,16.1,3.7,24.3C498.2,400.5,496.4,403.2,494.1,405.5L494.1,405.5z"/>
<polygon class="st1" points="115.9,212.3 199.9,223.9 283.9,212.3 199.9,158.6 "/>
<polygon class="st2" points="134.5,199.9 199.9,158.6 265.3,199.9 265.3,293.3 134.5,293.3 "/>
<linearGradient id="SVGID_2_" gradientUnits="userSpaceOnUse" x1="265.3" y1="632.8" x2="153" y2="632.8" gradientTransform="matrix(1 0 0 1 0 -400)">
	<stop  offset="0" style="stop-color:#043263;stop-opacity:0.8"/>
	<stop  offset="1" style="stop-color:#043263;stop-opacity:0"/>
</linearGradient>
<polyline class="st3" points="221,172.3 265.3,199.9 265.3,293.3 153,292.3 "/>
<path class="st4" d="M190.6,230.5h18.6c4.1,0,7.3,3.3,7.3,7.3v55.5l0,0h-33.3l0,0v-55.5C183.3,233.8,186.5,230.5,190.6,230.5
	L190.6,230.5z"/>
<path class="st5" d="M199.1,141.5l-81.8,52c-5.3,3.3-6.8,10.3-3.5,15.6l2.1,3.2l84-53.4l84,53.4l2.1-3.2c3.3-5.3,1.8-12.2-3.5-15.6
	l-81.8-52C200.2,141.2,199.6,141.2,199.1,141.5z"/>
<path class="st4" d="M113.5,366c2.4-0.1,11.1-14.3,11.1-14.3l11.1,14.3h27.7l11.1-14.6l11.1,10l11.1-10
	c-0.1-0.3,11.1,14.6,11.1,14.6h27.7c0,0,10.9-14.7,11.1-14.7l11.1,14.7l39.7,0.3c4.9,13.4,14.7,25.8,25.5,36.5
	c39.6,39.9,104.1,40.2,144,0.6s40.2-104.1,0.6-144s-104.1-40.2-144-0.6c-10.8,10.7-19.1,23.8-24.2,38.1l-213.6-0.5L51,330.9l36.5,35
	C87.3,366,98,366.6,113.5,366z M404.6,313.8c9.4-9.5,24.7-9.6,34.3-0.2c9.5,9.4,9.6,24.7,0.2,34.3c-9.4,9.5-24.7,9.6-34.3,0.2
	l-0.1-0.1C395.3,338.5,395.2,323.3,404.6,313.8L404.6,313.8z"/>
<path class="st6" d="M293.6,324.1c0.9-12.3,3.9-24.4,9.1-35.6L92,290l-34.2,34.1H293.6z"/>
<linearGradient id="SVGID_3_" gradientUnits="userSpaceOnUse" x1="495.9314" y1="734.9178" x2="334.1" y2="734.9178" gradientTransform="matrix(1 0 0 1 0 -400)">
	<stop  offset="0" style="stop-color:#028484;stop-opacity:0.8"/>
	<stop  offset="1" style="stop-color:#028484;stop-opacity:0"/>
</linearGradient>
<path class="st7" d="M466.3,259.2c-9.2-9.3-20.2-16.7-32.3-21.8l-99.9,175.2c45.1,33.3,108.7,23.7,142-21.5
	C505.9,350.9,501.7,294.8,466.3,259.2z M438.9,348c-9.4,9.5-24.7,9.6-34.3,0.2c-9.5-9.4-9.6-24.7-0.2-34.3
	c9.4-9.5,24.7-9.6,34.3-0.2l0.1,0.1C448.2,323.3,448.3,338.6,438.9,348z"/>
</svg>
